<svg width="369" height="231" viewBox="0 0 369 231" xmlns="http://www.w3.org/2000/svg">
    <g fill="none" fill-rule="evenodd">
        <g transform="translate(213 2)">
            <ellipse fill="#F4F5FA" fill-rule="nonzero" cx="21.38" cy="27.496" rx="16.824" ry="16.921"/>
            <ellipse stroke="#D4D4E7" stroke-width=".913" stroke-linecap="round" stroke-linejoin="round" cx="21.38" cy="27.496" rx="21.38" ry="21.504"/>
            <g transform="translate(28.04)" fill-rule="nonzero">
                <ellipse fill-opacity=".5" fill="#CFD0DF" cx="9.884" cy="13.185" rx="9.884" ry="9.941"/>
                <ellipse fill="#54C1FB" cx="11.076" cy="9.941" rx="9.884" ry="9.941"/>
                <text transform="translate(7.791 1.685)" fill="#FFF" font-family="Helvetica" font-size="13.14">
                                    <tspan x="0" y="13">1</tspan>
                                    <tspan x="0" y="29">2</tspan>
                                </text>
            </g>
            <path d="M25.587 24.959c0-2.103-1.695-3.808-3.786-3.808-2.09 0-3.785 1.705-3.785 3.808 0 4.442-1.893 5.71-1.893 5.71H27.48s-1.892-1.269-1.892-5.71m-2.694 8.244a1.26 1.26 0 0 1-2.183 0" stroke="#272848" stroke-linecap="round" stroke-linejoin="round" stroke-width="1.643"/>
        </g>
        <g transform="translate(86 78)">
            <rect stroke="#272848" stroke-width=".76" fill="#FFF" fill-rule="nonzero" x="9.201" width="197.616" height="126.189" rx="8.031"/>
            <rect stroke="#D4D4E7" stroke-width=".913" fill="#F3F4FE" fill-rule="nonzero" x="20.172" y="10.257" width="175.179" height="108.576" rx="5.111"/>
            <g transform="translate(46 54.587)">
                <path d="M0 0h31.059v20.696H0z"/>
                <ellipse fill="#76CFFD" cx="3.882" cy="15.768" rx="3.882" ry="3.942"/>
                <path d="M7.037 1.386a3.37 3.37 0 0 1 4.64 1.263l6.794 11.949c.938 1.65.382 3.759-1.243 4.711a3.37 3.37 0 0 1-4.64-1.262L5.792 6.098c-.938-1.65-.381-3.76 1.244-4.712zM18.198 1.34a3.37 3.37 0 0 1 4.64 1.263l6.31 11.095c.938 1.65.381 3.759-1.244 4.711a3.37 3.37 0 0 1-4.64-1.262L16.955 6.052c-.938-1.65-.381-3.76 1.243-4.712z" fill="#7579FB"/>
            </g>
            <path d="M100.241 73.077c.5 0 .91-.04 1.23-.117a3.38 3.38 0 0 0 .918-.375 74.271 74.271 0 0 0-.104-1.772c-.052-.768-.116-1.613-.194-2.535l-.246-2.885c-.086-1-.172-1.949-.258-2.845-.087-.897-.169-1.703-.246-2.42a19.77 19.77 0 0 0-.22-1.59c-.086-.466-.397-.824-.931-1.074-.535-.25-1.225-.375-2.07-.375-.5 0-.953.048-1.358.142a4.148 4.148 0 0 0-.996.35 57.393 57.393 0 0 0-1.138 3.401 238.295 238.295 0 0 0-1.242 4.204h-.13l-.465-1.513c-.173-.56-.35-1.125-.53-1.695a94.1 94.1 0 0 0-.544-1.655 47.425 47.425 0 0 0-.504-1.423c-.242-.638-.621-1.1-1.138-1.384-.518-.285-1.233-.427-2.148-.427-.845 0-1.5.13-1.966.388-.465.259-.767.5-.905.725l-.75 13.193c0 .638.211 1.078.634 1.32.422.24 1.013.362 1.772.362.362 0 .724-.03 1.086-.091.362-.06.655-.134.88-.22a114.411 114.411 0 0 0 .168-5.096 122.028 122.028 0 0 1 .168-5.226h.13c.172.707.413 1.53.724 2.47.31.94.707 2.17 1.19 3.687.12.38.383.647.789.802.405.155.918.233 1.539.233.466 0 .875-.056 1.229-.168.353-.112.642-.263.866-.453.466-1.587.863-2.889 1.19-3.906.328-1.018.578-1.863.75-2.536h.13c.052 1.018.09 2.277.116 3.777.026 1.5.09 3.191.194 5.07.035.656.276 1.096.725 1.32.448.224 1 .337 1.655.337zm11.331.206c.604 0 1.25-.051 1.94-.155a5.76 5.76 0 0 0 1.863-.595c.724-.38 1.087-.957 1.087-1.733 0-.345-.095-.673-.285-.983a2.166 2.166 0 0 0-.698-.724c-.397.241-.91.452-1.54.633a7.22 7.22 0 0 1-2.005.272c-.758 0-1.431-.142-2.017-.427-.587-.284-.975-.711-1.165-1.28l6.39-.958c.587-.086 1.044-.284 1.371-.595.328-.31.492-.758.492-1.345 0-.793-.151-1.526-.453-2.199a5.066 5.066 0 0 0-1.267-1.733 6.005 6.005 0 0 0-1.94-1.138c-.75-.276-1.583-.414-2.497-.414-.81 0-1.604.125-2.38.375a5.843 5.843 0 0 0-2.07 1.164c-.603.526-1.09 1.199-1.461 2.018-.371.82-.556 1.798-.556 2.936 0 1.156.185 2.165.556 3.027.37.862.88 1.578 1.526 2.147.647.57 1.406.996 2.277 1.28.87.285 1.815.427 2.832.427zm-3.13-7.89c.017-.276.073-.547.168-.815.095-.267.237-.508.427-.724.19-.216.436-.392.737-.53.302-.138.66-.207 1.074-.207.638 0 1.12.172 1.449.517.327.345.517.69.569 1.035l-4.424.724zm17.333 7.89c.603 0 1.25-.051 1.94-.155a5.76 5.76 0 0 0 1.862-.595c.725-.38 1.087-.957 1.087-1.733 0-.345-.095-.673-.285-.983a2.166 2.166 0 0 0-.698-.724c-.397.241-.91.452-1.54.633a7.22 7.22 0 0 1-2.004.272c-.759 0-1.432-.142-2.018-.427-.586-.284-.974-.711-1.164-1.28l6.39-.958c.586-.086 1.043-.284 1.37-.595.328-.31.492-.758.492-1.345 0-.793-.15-1.526-.452-2.199a5.066 5.066 0 0 0-1.268-1.733 6.005 6.005 0 0 0-1.94-1.138c-.75-.276-1.583-.414-2.497-.414-.81 0-1.604.125-2.38.375a5.843 5.843 0 0 0-2.07 1.164c-.603.526-1.09 1.199-1.46 2.018-.372.82-.557 1.798-.557 2.936 0 1.156.185 2.165.556 3.027.37.862.88 1.578 1.526 2.147.647.57 1.406.996 2.277 1.28.87.285 1.815.427 2.833.427zm-3.13-7.89c.017-.276.073-.547.168-.815.094-.267.237-.508.426-.724.19-.216.436-.392.738-.53s.66-.207 1.073-.207c.638 0 1.121.172 1.449.517.328.345.517.69.57 1.035l-4.425.724zm15.47 7.865c1.241 0 2.108-.207 2.6-.621.49-.414.737-.949.737-1.604 0-.328-.056-.608-.169-.84a3.162 3.162 0 0 0-.4-.635 4.508 4.508 0 0 1-.725.168 5.194 5.194 0 0 1-.802.065c-.517 0-.918-.095-1.203-.284-.284-.19-.427-.51-.427-.958v-3.906h2.355c.448 0 .806-.134 1.073-.4.267-.268.401-.704.401-1.307 0-.345-.047-.66-.142-.945a4.428 4.428 0 0 0-.298-.711h-3.389v-1.656c0-.862-.21-1.427-.633-1.694-.423-.267-1.014-.401-1.772-.401-.397 0-.772.03-1.126.09-.353.06-.625.117-.815.169V68.86c0 1.552.41 2.673 1.23 3.363.818.69 1.987 1.035 3.504 1.035zm8.07-.181c.38 0 .755-.03 1.126-.091.37-.06.651-.108.84-.142V57.839c0-.43-.055-.78-.167-1.047a1.493 1.493 0 0 0-.479-.634 1.74 1.74 0 0 0-.763-.31 6.992 6.992 0 0 0-2.147.013c-.371.06-.651.107-.841.142v15.004c0 .431.056.78.168 1.048.112.267.272.478.479.633.207.156.461.26.763.31.302.053.642.079 1.022.079zm8.15 4.371c.414 0 .81-.056 1.19-.168.38-.112.758-.319 1.138-.62.38-.302.776-.72 1.19-1.255.414-.535.862-1.225 1.345-2.07.293-.5.595-1.065.906-1.694.31-.63.612-1.298.905-2.005.293-.707.573-1.427.84-2.16.268-.733.5-1.445.7-2.134.198-.69.357-1.341.478-1.954.12-.612.18-1.15.18-1.616 0-.639-.197-1.087-.594-1.346-.397-.258-.897-.388-1.5-.388a4.31 4.31 0 0 0-2.044.492c-.12.707-.263 1.427-.427 2.16a67.82 67.82 0 0 1-.53 2.199c-.19.733-.384 1.444-.582 2.134-.199.69-.401 1.328-.608 1.914h-.104l-2.044-7.114c-.19-.69-.482-1.16-.88-1.41-.396-.25-.896-.375-1.5-.375-.482 0-.927.09-1.332.272-.405.181-.729.392-.97.634.276 1.155.539 2.177.79 3.065.25.888.49 1.677.723 2.367.233.69.457 1.302.673 1.837.216.535.418 1.018.608 1.449.397.88.763 1.479 1.1 1.798.336.319.65.521.944.608-.449.551-.949 1.09-1.5 1.616a22.342 22.342 0 0 1-1.656 1.436c.086.69.353 1.25.802 1.682.448.43 1.034.646 1.759.646z" fill="#2D2E4C" fill-rule="nonzero"/>
            <path d="M3.963 113.174h210.074a3.965 3.965 0 0 1 3.963 3.96v4.953c0 4.922-3.993 8.913-8.92 8.913H8.92a8.922 8.922 0 0 1-6.308-2.611A8.911 8.911 0 0 1 0 122.086v-4.95a3.96 3.96 0 0 1 3.963-3.962z" stroke="#272848" stroke-width=".76" fill="#FFF"/>
            <rect fill="#F4F5FA" fill-rule="nonzero" x="7.078" y="118.55" width="202.429" height="7.639" rx="3.82"/>
        </g>
        <path d="m270.647 126.887-3.893 48.153a4.633 4.633 0 0 0 .717 2.94 2.833 2.833 0 0 0 2.176 1.329c8.514.444 32.956 2.257 41.213 2.688 1.674.087 3.258-1.526 3.309-3.664.192-8.125.47-23.721.831-46.788a2.122 2.122 0 0 0-2-2.146l-42.352-2.512h-.001z" fill-opacity=".5" fill="#CFD0DF" opacity=".752"/>
        <path d="m312.244 136.933-42.727-7.498-4.592 35.453a2.919 2.919 0 0 0 2.398 3.244l36.947 6.482c.789.14 1.6-.05 2.246-.522a2.915 2.915 0 0 0 1.171-1.978l4.558-35.18z" fill="#272848"/>
        <path d="m312.244 136.933-42.727-7.498-6.205 35.029c-.136.762.039 1.547.485 2.18a2.933 2.933 0 0 0 1.893 1.2l36.951 6.486a2.942 2.942 0 0 0 2.191-.483 2.915 2.915 0 0 0 1.206-1.884l6.206-35.03z" fill="#7A7BA3"/>
        <path d="m310.502 136.628-42.726-7.498-6.206 35.028a2.905 2.905 0 0 0 .484 2.181 2.932 2.932 0 0 0 1.894 1.2l36.951 6.484a2.942 2.942 0 0 0 2.191-.483 2.915 2.915 0 0 0 1.206-1.884l6.206-35.028z" fill="#A1A1B7"/>
        <path d="m310.465 136.621-42.727-7.5-7.443 34.707a2.907 2.907 0 0 0 .436 2.24 2.934 2.934 0 0 0 1.922 1.243l36.947 6.484a2.932 2.932 0 0 0 3.376-2.265l7.486-34.91h0l.003.001z" stroke="#D4D4E7" stroke-width=".788" fill="#FFF" stroke-linecap="round" stroke-linejoin="round"/>
        <path d="m267.438 147.71 36.212 6.385m-33.922-15.914 36.212 6.385m-40.408 13.054 36.212 6.386m-26.714-29.6-5.784 28.397m14.977-26.865-5.785 28.397m24.168-24.95-5.782 28.397m-3.407-29.93-5.786 28.397" opacity=".556" stroke="#DFE0E3" stroke-width=".768"/>
        <path fill="#272848" d="m267.839 128.574 44.503 7.81-.135.761-44.503-7.809z"/>
        <path d="M313.694 128.755a2.946 2.946 0 0 0-.49-2.212 2.972 2.972 0 0 0-1.92-1.217l-36.873-6.47a2.982 2.982 0 0 0-2.222.49 2.955 2.955 0 0 0-1.22 1.911l-1.352 7.63 42.727 7.497 1.352-7.63h-.002z" fill="#14152F"/>
        <path d="M311.918 128.443a2.946 2.946 0 0 0-.492-2.212 2.973 2.973 0 0 0-1.919-1.217l-36.873-6.47a2.983 2.983 0 0 0-2.222.49 2.956 2.956 0 0 0-1.222 1.911l-1.351 7.63 42.727 7.497 1.352-7.63z" fill="#272848"/>
        <path d="M295.632 127.985a1.68 1.68 0 0 0-1.368-1.945l-7.662-1.344a1.686 1.686 0 0 0-1.954 1.361 1.68 1.68 0 0 0 1.368 1.945l7.662 1.344a1.687 1.687 0 0 0 1.954-1.361z" stroke="#FFF" stroke-width=".76" opacity=".215"/>
        <g transform="rotate(10 -518.21 1646.262)">
            <ellipse fill="#E66D6B" fill-rule="nonzero" cx="3.951" cy="8.947" rx="1.715" ry="1.706"/>
            <path d="M3.95 6.884c-.838 0-1.594.502-1.915 1.273a2.056 2.056 0 0 0 .45 2.248 2.08 2.08 0 0 0 2.258.448 2.063 2.063 0 0 0 1.28-1.906 2.07 2.07 0 0 0-2.072-2.063zm0 .357c.695 0 1.32.416 1.586 1.054a1.701 1.701 0 0 1-.372 1.86 1.721 1.721 0 0 1-1.87.37 1.707 1.707 0 0 1-1.058-1.578c0-.942.768-1.706 1.715-1.706z" fill="#FFF"/>
            <ellipse fill="#494E5F" fill-rule="nonzero" cx="3.951" cy="8.947" rx="1.715" ry="1.706"/>
            <path d="M4.54 7.348A1.707 1.707 0 0 1 5.667 8.95c0 .717-.45 1.357-1.125 1.603A1.707 1.707 0 0 1 3.416 8.95c0-.716.45-1.356 1.125-1.602z" fill="#090A29"/>
            <path d="M4.214 7.723c.316.043.6.211.79.467.189.255.265.576.212.889a1.13 1.13 0 0 1-1.002 1.092C1.987 10.171 0 7.967 0 5.086 0 2.204 1.987 0 4.214 0 6.26 0 8.1 1.861 8.388 4.404H5.9A3.027 3.027 0 0 0 5.343 3.1a1.471 1.471 0 0 0-1.132-.653c-.46.029-.88.27-1.134.653a3.263 3.263 0 0 0-.621 1.985 3.26 3.26 0 0 0 .621 1.984c.254.382.674.624 1.134.653h.003z" fill="#54C1FB"/>
            <path d="M8.294 3.826c.04.188.071.381.094.578H5.9a3.277 3.277 0 0 0-.155-.578h2.55z" fill="#0C0E28"/>
            <path d="M1.98 9.383A5.37 5.37 0 0 1 .002 5.086C.002 2.2 1.987 0 4.214 0A3.576 3.576 0 0 1 6 .491 5.024 5.024 0 0 0 4.798.263c-2.588 0-4.36 2.28-4.36 5.16a6.192 6.192 0 0 0 1.542 3.96z" fill="#FFF" opacity=".258"/>
        </g>
        <g transform="rotate(10 -528.299 1762.672)">
            <ellipse fill="#E66D6B" fill-rule="nonzero" cx="3.951" cy="8.947" rx="1.715" ry="1.706"/>
            <path d="M3.95 6.884a2.068 2.068 0 0 0-2.073 2.063c0 1.14.928 2.063 2.073 2.063a2.068 2.068 0 0 0 2.073-2.063A2.07 2.07 0 0 0 3.95 6.884zm0 .357c.694 0 1.32.415 1.586 1.053a1.701 1.701 0 0 1-.372 1.86 1.721 1.721 0 0 1-1.87.37 1.707 1.707 0 0 1-1.058-1.577c0-.942.768-1.705 1.714-1.706z" fill="#FFF"/>
            <ellipse fill="#494E5F" fill-rule="nonzero" cx="3.951" cy="8.947" rx="1.715" ry="1.706"/>
            <path d="M4.54 7.348A1.707 1.707 0 0 1 5.667 8.95c0 .717-.45 1.357-1.125 1.603A1.707 1.707 0 0 1 3.417 8.95c0-.715.449-1.355 1.124-1.602z" fill="#090A29"/>
            <path d="M4.214 7.723c.316.043.6.21.79.466.189.256.266.577.212.89a1.13 1.13 0 0 1-1.002 1.092c-2.227 0-4.212-2.204-4.212-5.085C.002 2.204 1.987 0 4.214 0c2.048 0 3.89 1.861 4.174 4.404H5.901A3.047 3.047 0 0 0 5.343 3.1a1.471 1.471 0 0 0-1.132-.653c-.46.029-.88.27-1.134.653a3.263 3.263 0 0 0-.621 1.985 3.26 3.26 0 0 0 .621 1.984c.255.383.676.625 1.137.653z" fill="#54C1FB"/>
            <path d="M8.294 3.826c.04.188.071.381.094.578H5.9a3.347 3.347 0 0 0-.16-.578h2.554z" fill="#0C0E28"/>
            <path d="M1.98 9.383A5.37 5.37 0 0 1 .002 5.086C.002 2.2 1.987 0 4.214 0a3.576 3.576 0 0 1 1.788.491A5.03 5.03 0 0 0 4.798.263C2.21.263.437 2.543.437 5.423a6.192 6.192 0 0 0 1.539 3.96h.004z" fill="#FFF" opacity=".258"/>
        </g>
        <path d="m274.682 139.194 7.723 1.355a.548.548 0 0 1 .445.635l-1.435 8.097a.548.548 0 0 1-.634.444l-7.723-1.355a.548.548 0 0 1-.445-.635l1.435-8.097a.548.548 0 0 1 .634-.444zM290.921 152.329l7.723 1.355a.548.548 0 0 1 .445.635l-1.435 8.097a.548.548 0 0 1-.634.444l-7.723-1.355a.548.548 0 0 1-.444-.635l1.434-8.097a.548.548 0 0 1 .634-.444z" fill="#54C1FB" fill-rule="nonzero"/>
        <g transform="rotate(180 102 57.5)" stroke="#D4D4E7" stroke-width=".913">
            <ellipse cx="2.137" cy="84.878" rx="2.137" ry="2.122"/>
            <path d="M4.274 84.878H15.67c4.524-.002 8.19-3.642 8.193-8.134v-72.5"/>
            <ellipse cx="23.863" cy="2.122" rx="2.137" ry="2.122"/>
        </g>
        <g transform="rotate(90 134.5 206)" stroke="#D4D4E7" stroke-width=".913">
            <ellipse cx="2.152" cy="2.119" rx="2.152" ry="2.119"/>
            <path d="M4.305 2.295h18.292c4.558 0 8.254 3.638 8.254 8.126v95.344"/>
            <ellipse cx="30.848" cy="107.881" rx="2.152" ry="2.119"/>
        </g>
        <g transform="rotate(90 -12 134)" stroke="#D4D4E7" stroke-width=".913">
            <ellipse cx="2.109" cy="66.877" rx="2.109" ry="2.123"/>
            <path d="M4.043 66.877h14.763c4.464-.002 8.083-3.645 8.085-8.139V4.248"/>
            <ellipse cx="26.891" cy="2.123" rx="2.109" ry="2.123"/>
        </g>
        <g fill-rule="nonzero">
            <path d="M98.915 13.064a2.246 2.246 0 0 1 1.453-2.098l16.786-5.809c.466-.173.985-.13 1.416.116.432.247.733.674.823 1.165l7.223 33.284a2.247 2.247 0 0 1-1.406 2.542L83.12 56.83c-.465.174-.983.131-1.415-.116a1.69 1.69 0 0 1-.823-1.164l-6.148-28.33a2.246 2.246 0 0 1 1.407-2.541l19.379-6.707a5.244 5.244 0 0 0 3.393-4.901l.002-.007z" fill="#4C50CA"/>
            <path d="M67.19 24.288 81.661 5.764a3.228 3.228 0 0 1 4.534-.554l17.638 13.809a3.228 3.228 0 0 1 .554 4.529L89.916 42.072a3.228 3.228 0 0 1-4.534.554L67.744 28.817a3.228 3.228 0 0 1-.554-4.529z" stroke="#D4D4E7" stroke-width=".852" fill="#FFF" stroke-linecap="round" stroke-linejoin="round"/>
            <path d="M74.572 26.952 87.04 11.555a.4.4 0 0 1 .375-.146.404.404 0 0 1 .25.653l-12.47 15.396a.401.401 0 0 1-.624-.506zm4.159 3.928 12.467-15.396a.4.4 0 0 1 .375-.147.404.404 0 0 1 .249.653L79.356 31.388a.4.4 0 0 1-.376.146.404.404 0 0 1-.248-.653h-.001z" fill="#272848"/>
            <path d="m83.793 15.433 21.298-9.946a3.228 3.228 0 0 1 4.292 1.563l9.457 20.307a3.228 3.228 0 0 1-1.56 4.287l-21.3 9.946a3.228 3.228 0 0 1-4.291-1.563L82.232 19.72a3.228 3.228 0 0 1 1.56-4.287z" stroke="#D4D4E7" stroke-width=".852" fill="#FFF" stroke-linecap="round" stroke-linejoin="round"/>
            <path d="m88.49 19.83 16.741-7.82a.401.401 0 0 1 .34.728l-16.742 7.82a.401.401 0 0 1-.34-.728zm4.446 9.35 16.742-7.82a.401.401 0 0 1 .338.729L93.28 29.906a.399.399 0 0 1-.405-.03.404.404 0 0 1 .066-.698h-.004zm-2.129-4.925 12.376-5.78a.401.401 0 0 1 .34.728l-12.377 5.78a.399.399 0 0 1-.405-.029.404.404 0 0 1 .066-.699z" fill="#272848"/>
            <path d="M94.164 23.174a1.65 1.65 0 0 1 1.242-1.74l16.787-5.809a2.043 2.043 0 0 1 2.51.819l10.595 23.588c.38.8-.127 1.732-1.135 2.08L82.076 56.678a2.043 2.043 0 0 1-2.51-.818l-8.82-19.837c-.38-.8.128-1.732 1.136-2.081l19.379-6.707c1.982-.686 3.186-2.369 2.902-4.06l.001-.001z" fill="#6D71F9"/>
        </g>
        <g transform="rotate(-18 307.704 45.5)">
            <rect stroke="#D4D4E7" stroke-width=".913" width="51.334" height="50.627" rx="4.563"/>
            <rect fill="#54C1FB" fill-rule="nonzero" x="10.267" y="23.366" width="6.372" height="19.826" rx="1.825"/>
            <rect fill="#6D71F9" fill-rule="nonzero" x="22.304" y="18.764" width="6.372" height="24.428" rx="1.825"/>
            <rect fill="#272848" fill-rule="nonzero" x="34.695" y="13.807" width="6.372" height="29.385" rx="1.825"/>
            <path d="M10.267 15.754A36.911 36.911 0 0 0 36.82 5.134m-4.07.177h4.07l-.53 4.07" stroke="#272848" stroke-width=".913" stroke-linecap="round"/>
        </g>
        <g>
            <g transform="rotate(17 -105.436 600.743)">
                <path d="M52.312 31.078a4.306 4.306 0 0 1-1.242 3.03 4.22 4.22 0 0 1-3 1.254H11.798l-8.273 5.999V9.654c0-2.366 1.9-4.284 4.242-4.284H48.07c2.343 0 4.242 1.919 4.242 4.285v21.423z" fill-opacity=".5" fill="#CFD0DF" opacity=".752"/>
                <path d="M48.788 25.708c0 2.366-1.9 4.284-4.243 4.284H8.273L0 35.99V4.284C0 1.918 1.9 0 4.243 0h40.302c2.343 0 4.243 1.918 4.243 4.285v21.423z" stroke="#D4D4E7" stroke-width=".876" fill="#FFF" stroke-linecap="round" stroke-linejoin="round"/>
                <rect fill="#54C1FB" fill-rule="nonzero" x="5.939" y="7.712" width="13.576" height="13.711" rx="5.476"/>
                <path d="M38.895 12.426H26.437a.506.506 0 0 1-.558-.429.505.505 0 0 1 .558-.429h12.458a.505.505 0 0 1 .558.428.505.505 0 0 1-.558.428m2.848 6.428H26.557c-.376 0-.68-.192-.68-.428 0-.235.304-.428.68-.428h15.186c.375 0 .68.19.68.428 0 .237-.305.428-.68.428" fill="#272848"/>
            </g>
            <path d="m180.9 75.249-2.416-2.907a.423.423 0 0 0-.734.164l-1.116 4.205a.432.432 0 0 0 .3.524c.084.023.174.02.256-.011l3.53-1.297a.43.43 0 0 0 .18-.677v-.001z" fill="#FFF"/>
        </g>
        <g transform="translate(321 17)">
            <path d="M0 18.245v21.847a2.815 2.815 0 0 0 2.993 2.595h42.014A2.815 2.815 0 0 0 48 40.092V18.245H0" fill="#13142E"/>
            <path d="M46.925 16.114 25.548.505a2.624 2.624 0 0 0-3.096 0L1.078 16.114A2.617 2.617 0 0 0 0 18.228v.016h48v-.016c0-.836-.4-1.621-1.075-2.115" fill="#3C3E6B"/>
            <path d="M40.887 9.217H7.09a.936.936 0 0 0-.936.935v26.672c0 .517.42.936.936.936h33.796a.937.937 0 0 0 .936-.936v-26.67a.936.936 0 0 0-.936-.936" stroke="#D4D4E7" stroke-width=".788" fill="#FFF" stroke-linecap="round" stroke-linejoin="round"/>
            <rect stroke="#CFD0DF" stroke-width=".76" x="15.039" y="23.895" width="17.773" height="1" rx=".5"/>
            <path d="M2.993 47h42.064A2.972 2.972 0 0 0 48 44V18.244L2.994 46.998" fill="#3C3E6B"/>
            <path d="M0 18.245v25.754A2.973 2.973 0 0 0 2.943 47h42.064L0 18.245" fill="#2E2F56"/>
            <path d="M23.23 14.984h2.426c.359.018.636.32.624.678a.682.682 0 0 1-.167.489l-2.408 2.404a.729.729 0 0 1-.936-.038.799.799 0 0 1-.214-.52v-2.342c0-.37.301-.67.672-.67h.003z" fill="#6DC8F9" fill-rule="nonzero"/>
            <path d="M23.237 12.29h3.09a.675.675 0 0 1 .478 1.15l-2.943 2.955a.851.851 0 0 1-1.085-.092.752.752 0 0 1-.215-.504v-2.836c.001-.372.303-.673.675-.673z" fill="#6D71F9" fill-rule="nonzero"/>
            <path d="M25.257 14.984a58.14 58.14 0 0 1-1.353 1.38.791.791 0 0 1-1.07 0 .774.774 0 0 1-.26-.488l-.016-.22a.696.696 0 0 1 .672-.672h2.027z" fill="#4D51C0" fill-rule="nonzero"/>
            <rect stroke="#CFD0DF" stroke-width=".76" x="19.141" y="21.506" width="9.912" height="1" rx=".5"/>
            <ellipse fill="#6D71F9" fill-rule="nonzero" cx="24.438" cy="34.988" rx="8.374" ry="8.363"/>
            <ellipse stroke="#9FA2FF" stroke-width=".76" cx="24.438" cy="34.988" rx="8.374" ry="8.363"/>
            <path stroke="#FFF" stroke-width="1.095" stroke-linecap="round" stroke-linejoin="round" d="m27.824 32.639-4.665 4.66-2.122-2.118"/>
        </g>
        <g>
            <path d="M187.996 188.33c-9.43 4.456-13.51 15.814-9.113 25.37 4.399 9.554 15.61 13.688 25.04 9.232 9.432-4.456 13.512-15.814 9.114-25.37-2.112-4.588-5.937-8.139-10.633-9.87a18.619 18.619 0 0 0-14.408.637" fill-opacity=".5" fill="#CFD0DF" opacity=".827"/>
            <path d="M174.963 205.183c4.398 9.555 15.609 13.69 25.04 9.234 9.431-4.456 13.512-15.814 9.114-25.37-4.398-9.555-15.609-13.689-25.04-9.233-9.431 4.455-13.512 15.814-9.114 25.37" fill="#FFF"/>
            <path d="M174.963 205.183c4.398 9.555 15.609 13.69 25.04 9.234 9.431-4.456 13.512-15.814 9.114-25.37-4.398-9.555-15.609-13.689-25.04-9.233-9.431 4.455-13.512 15.814-9.114 25.37z" stroke="#BFC0D3" stroke-width=".852" stroke-linecap="round" stroke-linejoin="round"/>
            <path d="M184.811 199.408c1.582 3.055 4.04 6.927 5.804 6.641 2.796-.458 4.861-1.394 6.132-2.766a14.532 14.532 0 0 0 2.09-3.03l1.885-.977a.775.775 0 0 0 .331-1.033l-3.043-6.104a.756.756 0 0 0-.939-.377l-1.676.613s-3.938-1.563-5.21-4.524c-.354-.829-.581-.604-.959-.605-.722-.004-1.108 1.277-.789 2.603a16.197 16.197 0 0 0 1.148 3.22s-3.26 1.155-5.1 2.017a.124.124 0 0 0-.043.02c-1.416.561-2.42 1.012-1.702 3.016.241.673 1.144 1.064 2.07 1.29l.001-.004z" fill="#6D71F9"/>
            <path d="m195.795 170.21 1.394-7.21m9.102 10.634 4.86-6.633m2.034 14.798 7.028-3.18" stroke="#272848" stroke-width="1.577" stroke-linecap="round"/>
        </g>
    </g>
</svg>
