<svg width="106" height="70" viewBox="0 0 106 70" xmlns="http://www.w3.org/2000/svg">
    <g fill="none" fill-rule="evenodd" opacity=".203">
        <path d="M0 0h106v70H0z"/>
        <ellipse fill="#76CFFD" cx="13.25" cy="53.333" rx="13.25" ry="13.333"/>
        <path d="M24.016 4.69C29.56 1.466 36.65 3.38 39.853 8.96L63.04 49.373c3.202 5.58 1.302 12.715-4.243 15.937-5.545 3.222-12.636 1.31-15.837-4.27L19.772 20.626C16.57 15.046 18.47 7.911 24.016 4.69zM62.11 4.532c5.545-3.221 12.635-1.31 15.837 4.27L99.478 46.33c3.202 5.58 1.302 12.716-4.244 15.937-5.545 3.222-12.635 1.31-15.837-4.27L57.866 20.47c-3.202-5.58-1.302-12.715 4.243-15.937z" fill="#7579FB"/>
    </g>
</svg>
